<?xml version="1.0" encoding="utf-8"?>
<svg version="1.1" xmlns:xlink="http://www.w3.org/1999/xlink" width="20px" height="20px" viewBox="247 285.5  20 20" xmlns="http://www.w3.org/2000/svg">
  <path d="M 257 285.5  C 262.6 285.5  267 289.9  267 295.5  C 267 301.1  262.6 305.5  257 305.5  C 251.4 305.5  247 301.1  247 295.5  C 247 289.9  251.4 285.5  257 285.5  Z " fill-rule="nonzero" fill="#f0f0f0" stroke="none" />
  <path d="M 257 286  C 262.32 286  266.5 290.18  266.5 295.5  C 266.5 300.82  262.32 305  257 305  C 251.68 305  247.5 300.82  247.5 295.5  C 247.5 290.18  251.68 286  257 286  Z " stroke-width="1" stroke="#797979" fill="none" />
  <path d="M 257 300.5  C 254.2 300.5  252 298.3  252 295.5  C 252 292.7  254.2 290.5  257 290.5  C 259.8 290.5  262 292.7  262 295.5  C 262 298.3  259.8 300.5  257 300.5  " fill-rule="nonzero" fill="#797979" stroke="none" />
</svg>