<?xml version="1.0" encoding="utf-8"?>
<svg version="1.1" xmlns:xlink="http://www.w3.org/1999/xlink" width="20px" height="20px" viewBox="347 285.5  20 20" xmlns="http://www.w3.org/2000/svg">
  <path d="M 357 285.5  C 362.6 285.5  367 289.9  367 295.5  C 367 301.1  362.6 305.5  357 305.5  C 351.4 305.5  347 301.1  347 295.5  C 347 289.9  351.4 285.5  357 285.5  Z " fill-rule="nonzero" fill="#f0f0f0" stroke="none" />
  <path d="M 357 286  C 362.32 286  366.5 290.18  366.5 295.5  C 366.5 300.82  362.32 305  357 305  C 351.68 305  347.5 300.82  347.5 295.5  C 347.5 290.18  351.68 286  357 286  Z " stroke-width="1" stroke="#797979" fill="none" />
  <path d="M 357 300.5  C 354.2 300.5  352 298.3  352 295.5  C 352 292.7  354.2 290.5  357 290.5  C 359.8 290.5  362 292.7  362 295.5  C 362 298.3  359.8 300.5  357 300.5  " fill-rule="nonzero" fill="#797979" stroke="none" />
</svg>