<?xml version="1.0" encoding="utf-8"?>
<svg version="1.1" xmlns:xlink="http://www.w3.org/1999/xlink" width="20px" height="20px" viewBox="781 222.5  20 20" xmlns="http://www.w3.org/2000/svg">
  <path d="M 791 222.5  C 796.6 222.5  801 226.9  801 232.5  C 801 238.1  796.6 242.5  791 242.5  C 785.4 242.5  781 238.1  781 232.5  C 781 226.9  785.4 222.5  791 222.5  Z " fill-rule="nonzero" fill="#f0f0f0" stroke="none" />
  <path d="M 791 223  C 796.32 223  800.5 227.18  800.5 232.5  C 800.5 237.82  796.32 242  791 242  C 785.68 242  781.5 237.82  781.5 232.5  C 781.5 227.18  785.68 223  791 223  Z " stroke-width="1" stroke="#797979" fill="none" />
  <path d="M 791 237.5  C 788.2 237.5  786 235.3  786 232.5  C 786 229.7  788.2 227.5  791 227.5  C 793.8 227.5  796 229.7  796 232.5  C 796 235.3  793.8 237.5  791 237.5  " fill-rule="nonzero" fill="#797979" stroke="none" />
</svg>