<?xml version="1.0" encoding="utf-8"?>
<svg version="1.1" xmlns:xlink="http://www.w3.org/1999/xlink" width="20px" height="20px" viewBox="881 222.5  20 20" xmlns="http://www.w3.org/2000/svg">
  <path d="M 891 222.5  C 896.6 222.5  901 226.9  901 232.5  C 901 238.1  896.6 242.5  891 242.5  C 885.4 242.5  881 238.1  881 232.5  C 881 226.9  885.4 222.5  891 222.5  Z " fill-rule="nonzero" fill="#f0f0f0" stroke="none" />
  <path d="M 891 223  C 896.32 223  900.5 227.18  900.5 232.5  C 900.5 237.82  896.32 242  891 242  C 885.68 242  881.5 237.82  881.5 232.5  C 881.5 227.18  885.68 223  891 223  Z " stroke-width="1" stroke="#797979" fill="none" />
  <path d="M 891 237.5  C 888.2 237.5  886 235.3  886 232.5  C 886 229.7  888.2 227.5  891 227.5  C 893.8 227.5  896 229.7  896 232.5  C 896 235.3  893.8 237.5  891 237.5  " fill-rule="nonzero" fill="#797979" stroke="none" />
</svg>