<?xml version="1.0" encoding="utf-8"?>
<svg version="1.1" xmlns:xlink="http://www.w3.org/1999/xlink" width="40px" height="40px" xmlns="http://www.w3.org/2000/svg">
  <g transform="matrix(1 0 0 1 -466 -73 )">
    <path d="M 486 73  C 497.2 73  506 81.8  506 93  C 506 104.2  497.2 113  486 113  C 474.8 113  466 104.2  466 93  C 466 81.8  474.8 73  486 73  Z " fill-rule="nonzero" fill="#ffffff" stroke="none" />
    <path d="M 486 73.5  C 496.92 73.5  505.5 82.08  505.5 93  C 505.5 103.92  496.92 112.5  486 112.5  C 475.08 112.5  466.5 103.92  466.5 93  C 466.5 82.08  475.08 73.5  486 73.5  Z " stroke-width="1" stroke="#797979" fill="none" />
  </g>
</svg>